<?xml version="1.0" encoding="UTF-8"?>
<svg xmlns="http://www.w3.org/2000/svg" xmlns:xlink="http://www.w3.org/1999/xlink" width="2200pt" height="2200pt" viewBox="0 0 2200 2200" version="1.1">
<defs>
<clipPath id="clip1">
  <path d="M 117 301 L 1840 301 L 1840 1100 L 117 1100 Z M 117 301 "/>
</clipPath>
</defs>
<g id="surface52">
<path style=" stroke:none;fill-rule:nonzero;fill:rgb(10%,66%,35%);fill-opacity:1;" d="M 1839.007812 426.304688 C 1250 500 900 550 497.367188 301.984375 C 298.464844 452.183594 162.824219 671.25 117.027344 916.25 C 500 750 900 800 1000 800 C 950 1050 850 1500 497.367188 1898.015625 L 1500 1898.015625 C 750 1600 1020 700 1839.007812 426.304688 Z M 1839.007812 426.304688 "/>
<path style=" stroke:none;fill-rule:nonzero;fill:rgb(10%,33%,67%);fill-opacity:1;" d="M 360.992188 1773.695312 L 1839.007812 1773.695312 C 2050.277344 1541.945312 2140.597656 1224.507812 2082.972656 916.25 C 1700 1450 1300 1400 1200 1450 C 1250 1150 1350 700 1702.632812 301.984375 C 1350 350 900 270 654.261719 204.835938 C 1450 550 1200 1500 360.992188 1773.695312 Z M 360.992188 1773.695312 "/>
<g clip-path="url(#clip1)" clip-rule="nonzero">
<path style=" stroke:none;fill-rule:nonzero;fill:rgb(10%,66%,35%);fill-opacity:1;" d="M 1839.007812 426.304688 C 1250 500 900 550 497.367188 301.984375 C 298.464844 452.183594 162.824219 671.25 117.027344 916.25 C 500 750 900 800 1000 800 C 950 1050 850 1500 497.367188 1898.015625 L 1500 1898.015625 C 750 1600 1020 700 1839.007812 426.304688 Z M 1839.007812 426.304688 "/>
</g>
</g>
</svg>
